<svg id="kity_svg_6" xmlns="http://www.w3.org/2000/svg" xmlns:xlink="http://www.w3.org/1999/xlink" version="1.1" width="819" height="204" style="background: rgb(251, 251, 251); visibility: visible;" viewBox="0 0 819 204"><defs id="kity_defs_7"><linearGradient id="kity_linearGradient_17" x1="0" y1="0" x2="0" y2="1"><stop id="kity_stop_18" offset="0" stop-color="rgb(255, 255, 255)"></stop><stop id="kity_stop_19" offset="1" stop-color="rgb(204, 204, 204)"></stop></linearGradient><marker id="kity_marker_2" orient="auto" refX="6" refY="0" viewBox="-7 -7 14 14" markerWidth="7" markerHeight="7" markerUnits="userSpaceOnUse"><path id="kity_path_3" fill="rgb(115, 161, 191)" stroke="none" d="M6,0A6,6,0,1,1,-6,0A6,6,0,1,1,6,0"></path></marker></defs><g id="kity_g_8"><g id="minder1" text-rendering="optimize-speed"><g id="minder_connect_group1"><path id="kity_path_31" fill="none" stroke="rgb(115, 161, 191)" stroke-width="1" d="M132.5,102.5h70L252.5,52.5"></path><path id="kity_path_33" fill="none" stroke="rgb(115, 161, 191)" stroke-width="1" d="M132.5,102.5h90L272.5,152.5"></path><path id="kity_path_35" fill="none" stroke="rgb(115, 161, 191)" stroke-width="1" d="M132.5,102.5h260L442.5,52.5"></path><path id="kity_path_37" fill="none" stroke="rgb(115, 161, 191)" stroke-width="1" d="M132.5,102.5h262L444.5,152.5"></path><path id="kity_path_39" fill="none" stroke="rgb(115, 161, 191)" stroke-width="1" d="M132.5,102.5h466L648.5,52.5"></path></g><g id="minder_node1"><path id="node_outline1" fill="rgb(115, 161, 191)" stroke="rgb(57, 80, 96)" d="M25.5,82.5h102a5,5,0,0,1,5,5v30a5,5,0,0,1,-5,5h-102a5,5,0,0,1,-5,-5v-30a5,5,0,0,1,5,-5z" stroke-width="3"></path><g id="node_text1" fill="white"><text id="kity_text_22" text-rendering="inherit" font-size="16" dy=".8em" y="94.5" x="44.5">生命周期</text></g></g><g id="kity_g_12"><path id="kity_path_13" fill="none" stroke="none" d="M44.5,102.5h0v0h0z"></path></g><g id="kity_g_14"><path id="kity_path_15" fill="none" stroke="none" d="M44.5,102.5h0v0h0z"></path><path id="kity_path_16" fill="none" stroke="none"></path></g><g id="minder_node2"><g id="node_expander1" display="none" style="cursor: pointer;"><path id="kity_path_96" fill="white" stroke="gray" d="M253.55025100708008,57.44974708557129A6,6,0,1,1,241.55025100708008,57.44974708557129A6,6,0,1,1,253.55025100708008,57.44974708557129"></path><path id="kity_path_97" fill="none" stroke="gray"></path></g><path id="node_outline2" fill="rgb(238, 243, 246)" stroke="rgb(115, 161, 191)" d="M255.5,20.5h144a3,3,0,0,1,3,3v26a3,3,0,0,1,-3,3h-144a3,3,0,0,1,-3,-3v-26a3,3,0,0,1,3,-3z" stroke-width="1"></path><g id="node_text2" fill="black"><text id="kity_text_41" text-rendering="inherit" font-size="14" dy=".8em" y="29.5" x="297.5">onCreater</text></g><g id="node_priority1"><path id="kity_path_52" fill="#840023" stroke="none" d="M273,40c0,3.866,3.134,7,7,7h6c3.866,0,7,-3.134,7,-7V34H273V40z"></path><path id="kity_path_53" fill="#FF1200" stroke="none" d="M293,37c0,3.866,-3.134,7,-7,7H280c-3.866,0,-7,-3.134,-7,-7V34c0,-3.866,3.134,-7,7,-7h6c3.866,0,7,3.134,7,7V37z" opacity="0.8"></path><text id="kity_text_54" text-rendering="geometricPrecision" x="282" y="36.5" text-anchor="middle" font-style="italic" font-size="12" fill="white" dy="4">1</text></g><g id="kity_g_75" style="cursor: pointer;"><path id="kity_path_76" fill="none" stroke="none" d="M369,28h12a2,2,0,0,1,2,2v13a2,2,0,0,1,-2,2h-12a2,2,0,0,1,-2,-2v-13a2,2,0,0,1,2,-2z"></path><path id="kity_path_77" fill="black" stroke="none" d="M378,39H372V38h6L378,39L378,39zM378,37H372V36h6V37zM378,35H372V34h6V35zM377.5,41H371V32h8v7.5M378,42l2,-2V31H370v11"></path></g></g><g id="minder_node3"><g id="node_expander2" display="none" style="cursor: pointer;"><path id="kity_path_99" fill="white" stroke="gray" d="M273.5502510070801,147.5502529144287A6,6,0,1,1,261.5502510070801,147.5502529144287A6,6,0,1,1,273.5502510070801,147.5502529144287"></path><path id="kity_path_100" fill="none" stroke="gray"></path></g><path id="node_outline3" fill="rgb(238, 243, 246)" stroke="rgb(115, 161, 191)" d="M275.5,152.5h126a3,3,0,0,1,3,3v26a3,3,0,0,1,-3,3h-126a3,3,0,0,1,-3,-3v-26a3,3,0,0,1,3,-3z" stroke-width="1"></path><g id="node_text3" fill="black"><text id="kity_text_43" text-rendering="inherit" font-size="14" dy=".8em" y="161.5" x="317.5">onStart</text></g><g id="node_priority2"><path id="kity_path_57" fill="#01467F" stroke="none" d="M293,172c0,3.866,3.134,7,7,7h6c3.866,0,7,-3.134,7,-7V166H293V172z"></path><path id="kity_path_58" fill="#0074FF" stroke="none" d="M313,169c0,3.866,-3.134,7,-7,7H300c-3.866,0,-7,-3.134,-7,-7V166c0,-3.866,3.134,-7,7,-7h6c3.866,0,7,3.134,7,7V169z" opacity="0.8"></path><text id="kity_text_59" text-rendering="geometricPrecision" x="302" y="168.5" text-anchor="middle" font-style="italic" font-size="12" fill="white" dy="4">2</text></g><g id="kity_g_78" style="cursor: pointer;"><path id="kity_path_79" fill="none" stroke="none" d="M371,160h12a2,2,0,0,1,2,2v13a2,2,0,0,1,-2,2h-12a2,2,0,0,1,-2,-2v-13a2,2,0,0,1,2,-2z"></path><path id="kity_path_80" fill="black" stroke="none" d="M380,171H374V170h6L380,171L380,171zM380,169H374V168h6V169zM380,167H374V166h6V167zM379.5,173H373V164h8v7.5M380,174l2,-2V163H372v11"></path></g></g><g id="minder_node4"><g id="node_expander3" display="none" style="cursor: pointer;"><path id="kity_path_102" fill="white" stroke="gray" d="M443.5502510070801,57.44974708557129A6,6,0,1,1,431.5502510070801,57.44974708557129A6,6,0,1,1,443.5502510070801,57.44974708557129"></path><path id="kity_path_103" fill="none" stroke="gray"></path></g><path id="node_outline4" fill="rgb(238, 243, 246)" stroke="rgb(115, 161, 191)" d="M445.5,20.5h160a3,3,0,0,1,3,3v26a3,3,0,0,1,-3,3h-160a3,3,0,0,1,-3,-3v-26a3,3,0,0,1,3,-3z" stroke-width="1"></path><g id="node_text4" fill="black"><text id="kity_text_45" text-rendering="inherit" font-size="14" dy=".8em" y="29.5" x="487.5">onBindEvent</text></g><g id="node_priority3"><path id="kity_path_62" fill="#006300" stroke="none" d="M463,40c0,3.866,3.134,7,7,7h6c3.866,0,7,-3.134,7,-7V34H463V40z"></path><path id="kity_path_63" fill="#00AF00" stroke="none" d="M483,37c0,3.866,-3.134,7,-7,7H470c-3.866,0,-7,-3.134,-7,-7V34c0,-3.866,3.134,-7,7,-7h6c3.866,0,7,3.134,7,7V37z" opacity="0.8"></path><text id="kity_text_64" text-rendering="geometricPrecision" x="472" y="36.5" text-anchor="middle" font-style="italic" font-size="12" fill="white" dy="4">3</text></g><g id="kity_g_81" style="cursor: pointer;"><path id="kity_path_82" fill="none" stroke="none" d="M575,28h12a2,2,0,0,1,2,2v13a2,2,0,0,1,-2,2h-12a2,2,0,0,1,-2,-2v-13a2,2,0,0,1,2,-2z"></path><path id="kity_path_83" fill="black" stroke="none" d="M584,39H578V38h6L584,39L584,39zM584,37H578V36h6V37zM584,35H578V34h6V35zM583.5,41H577V32h8v7.5M584,42l2,-2V31H576v11"></path></g></g><g id="minder_node5"><g id="node_expander4" display="none" style="cursor: pointer;"><path id="kity_path_105" fill="white" stroke="gray" d="M445.5502510070801,147.5502529144287A6,6,0,1,1,433.5502510070801,147.5502529144287A6,6,0,1,1,445.5502510070801,147.5502529144287"></path><path id="kity_path_106" fill="none" stroke="gray"></path></g><path id="node_outline5" fill="rgb(238, 243, 246)" stroke="rgb(115, 161, 191)" d="M447.5,152.5h178a3,3,0,0,1,3,3v26a3,3,0,0,1,-3,3h-178a3,3,0,0,1,-3,-3v-26a3,3,0,0,1,3,-3z" stroke-width="1"></path><g id="node_text5" fill="black"><text id="kity_text_47" text-rendering="inherit" font-size="14" dy=".8em" y="161.5" x="489.5">onUnBindEvent</text></g><g id="node_priority4"><path id="kity_path_67" fill="#B25000" stroke="none" d="M465,172c0,3.866,3.134,7,7,7h6c3.866,0,7,-3.134,7,-7V166H465V172z"></path><path id="kity_path_68" fill="#FF962E" stroke="none" d="M485,169c0,3.866,-3.134,7,-7,7H472c-3.866,0,-7,-3.134,-7,-7V166c0,-3.866,3.134,-7,7,-7h6c3.866,0,7,3.134,7,7V169z" opacity="0.8"></path><text id="kity_text_69" text-rendering="geometricPrecision" x="474" y="168.5" text-anchor="middle" font-style="italic" font-size="12" fill="white" dy="4">4</text></g><g id="kity_g_84" style="cursor: pointer;"><path id="kity_path_85" fill="none" stroke="none" d="M595,160h12a2,2,0,0,1,2,2v13a2,2,0,0,1,-2,2h-12a2,2,0,0,1,-2,-2v-13a2,2,0,0,1,2,-2z"></path><path id="kity_path_86" fill="black" stroke="none" d="M604,171H598V170h6L604,171L604,171zM604,169H598V168h6V169zM604,167H598V166h6V167zM603.5,173H597V164h8v7.5M604,174l2,-2V163H596v11"></path></g></g><g id="minder_node6"><g id="node_expander5" display="none" style="cursor: pointer;"><path id="kity_path_108" fill="white" stroke="gray" d="M649.5502510070801,57.44974708557129A6,6,0,1,1,637.5502510070801,57.44974708557129A6,6,0,1,1,649.5502510070801,57.44974708557129"></path><path id="kity_path_109" fill="none" stroke="gray"></path></g><path id="node_outline6" fill="rgb(238, 243, 246)" stroke="rgb(115, 161, 191)" d="M651.5,20.5h145a3,3,0,0,1,3,3v26a3,3,0,0,1,-3,3h-145a3,3,0,0,1,-3,-3v-26a3,3,0,0,1,3,-3z" stroke-width="1"></path><g id="node_text6" fill="black"><text id="kity_text_49" text-rendering="inherit" font-size="14" dy=".8em" y="29.5" x="693.5">onDestory</text></g><g id="node_priority5"><path id="kity_path_72" fill="#4720C4" stroke="none" d="M669,40c0,3.866,3.134,7,7,7h6c3.866,0,7,-3.134,7,-7V34H669V40z"></path><path id="kity_path_73" fill="#A464FF" stroke="none" d="M689,37c0,3.866,-3.134,7,-7,7H676c-3.866,0,-7,-3.134,-7,-7V34c0,-3.866,3.134,-7,7,-7h6c3.866,0,7,3.134,7,7V37z" opacity="0.8"></path><text id="kity_text_74" text-rendering="geometricPrecision" x="678" y="36.5" text-anchor="middle" font-style="italic" font-size="12" fill="white" dy="4">5</text></g><g id="kity_g_87" style="cursor: pointer;"><path id="kity_path_88" fill="none" stroke="none" d="M766,28h12a2,2,0,0,1,2,2v13a2,2,0,0,1,-2,2h-12a2,2,0,0,1,-2,-2v-13a2,2,0,0,1,2,-2z"></path><path id="kity_path_89" fill="black" stroke="none" d="M775,39H769V38h6L775,39L775,39zM775,37H769V36h6V37zM775,35H769V34h6V35zM774.5,41H768V32h8v7.5M775,42l2,-2V31H767v11"></path></g></g></g></g></svg>