<?xml version="1.0" standalone="no"?><!DOCTYPE svg PUBLIC "-//W3C//DTD SVG 1.1//EN" "http://www.w3.org/Graphics/SVG/1.1/DTD/svg11.dtd"><svg t="1533177265685" class="icon" style="" viewBox="0 0 1024 1024" version="1.1" xmlns="http://www.w3.org/2000/svg" p-id="3002" xmlns:xlink="http://www.w3.org/1999/xlink" width="64" height="64"><defs><style type="text/css"></style></defs><path d="M512.064 864c-12.032 0-23.296-4.544-31.552-12.864l-271.552-262.08c-0.384-0.192-104.704-92.352-104.704-207.68 0-136.512 86.528-221.376 225.664-221.376 73.664 0 141.824 50.432 182.08 87.552 40.192-37.12 108.352-87.552 181.952-87.552 139.264 0 225.664 84.864 225.664 221.376 0 100.288-79.808 184.448-104.256 207.872l-272.064 262.016C535.232 859.456 523.968 864 512.064 864zM329.984 195.264c-121.088 0-190.592 67.776-190.592 186.112 0 97.216 92.416 180.992 93.248 181.952l272.32 262.656c2.56 2.624 5.504 3.072 7.04 3.072 1.472 0 4.352-0.448 6.72-2.88l271.488-261.504c22.784-21.76 94.336-96.96 94.336-183.232 0-118.4-69.376-186.112-190.592-186.112-69.12 0-135.936 55.68-169.664 89.024l-12.288 12.096-12.416-12.096C466.048 250.944 399.296 195.264 329.984 195.264z" p-id="3003"></path></svg>